<?xml version="1.0" encoding="UTF-8"?>
<svg id="_图层_2" data-name="图层 2" xmlns="http://www.w3.org/2000/svg" viewBox="0 0 61.34 58.67">
    <defs>
        <style>
            .cls-1 {}
        </style>
    </defs>
    <g id="_图层_1-2" data-name="图层 1">
        <g>
            <ellipse class="cls-1" cx="8.24" cy="51.85" rx="6.57" ry="6.82" />
            <ellipse class="cls-1" cx="32.02" cy="51.85" rx="6.57" ry="6.82" />
        </g>
        <path class="cls-1"
            d="M0,49.29c1.07-3.68,4.35-6.37,8.24-6.37,4.21,0,7.72,3.14,8.46,7.29h6.85c.75-4.14,4.26-7.29,8.46-7.29,2.17,0,4.16.84,5.68,2.23v-2.1s7.67,5.52,7.67,5.52h7.88s0-4.27,0-4.27h2.92c.03.41.36.74.76.74h3.64c.42,0,.77-.36.77-.8v-4.97c0-.44-.35-.8-.77-.8h-3.64c-.4,0-.73.33-.77.74h-2.92v-13.92s-1.41,0-1.41,0l-.85,11.64-3.67-.69V15.9c0-2.51-13.54-2.85-13.54-2.85l-2.53-7.74v-3.08s-11.88,0-11.88,0c0-.04.01-.08.01-.12C19.37.95,18.46,0,17.34,0h-5.78c-1.13,0-2.04.95-2.04,2.12,0,.04,0,.08.01.12H0s0,11.49,0,11.49v16.49s0,2.59,0,2.59h46.23v1.76H0s0,14.72,0,14.72ZM12.01,14.93H3.85v-7.73h8.16v7.73ZM21.75,14.93h-8.16v-7.73h8.16v7.73ZM33.54,14.93h-4.98s-3.11-7.73-3.11-7.73h4.92s3.17,7.73,3.17,7.73Z" />
    </g>
</svg>